<svg xmlns="http://www.w3.org/2000/svg" aria-hidden="true" style="position:absolute;width:0;height:0;overflow:hidden">
  <defs>
    <symbol id="icon-sun" viewBox="0 0 32 32">
<path d="M14.254 13.506l0.363 0.372-4.466-12.797 5.321 12.466 0.018-0.52 0.441-13.027 0.441 13.026 0.018 0.521 0.204-0.479 5.117-11.987-4.466 12.797 9.465-9.702-8.787 10.32 12.331-5.628-11.922 6.449 13.531-0.793-13.446 1.707 12.904 4.148-13.155-3.266 10.534 8.53-11.086-7.797 6.741 11.759-7.521-11.276 2.038 13.4-2.94-13.231-2.94 13.232 1.96-12.886 0.078-0.515-0.288 0.433-7.233 10.843 6.741-11.758-0.426 0.299-10.661 7.499 10.535-8.53-13.156 3.266 12.904-4.148-13.446-1.707 13.531 0.793-11.922-6.449 12.331 5.628-8.787-10.32 9.102 9.33zM15.185 14.071l-0.646 0.4-0.458 0.607-0.208 0.731 0.070 0.757 0.339 0.68 0.562 0.512 0.709 0.275h0.76l0.709-0.274 0.562-0.512 0.339-0.681 0.070-0.757-0.208-0.731-0.459-0.607-0.645-0.4-0.748-0.14-0.747 0.14z"></path>
</symbol>
    <symbol id="icon-loop" viewBox="0 0 32 32">
      <path
        d="M27.802 5.197A15.958 15.958 0 0 0 15.999 0c-8.837 0-16 7.163-16 16h3c0-7.18 5.82-13 13-13 3.844 0 7.298 1.669 9.678 4.322L20.999 12h11V1l-4.198 4.197zM29 16c0 7.18-5.82 13-13 13a12.965 12.965 0 0 1-9.678-4.322L11 20H0v11l4.197-4.197A15.958 15.958 0 0 0 16 32c8.837 0 16-7.163 16-16h-3z" />
    </symbol>
    <symbol id="icon-logo" viewBox="0 0 176 32">
      <path
        d="M6.64 17.707 0 6.667h3.973l4.453 7.653h.053l4.453-7.653h3.973l-6.64 11.04v7.627H6.638v-7.627zM16.894 22.267V9.734l3.067-3.067h9.6l3.067 3.067v12.533l-3.067 3.067h-9.6l-3.067-3.067zm10.746-.027L29 20.88v-9.76l-1.36-1.36h-5.76l-1.36 1.36v9.76l1.36 1.36h5.76zM35.166 22.133V6.666h3.627v14.213l1.36 1.36h5.227l1.36-1.36V6.666h3.627v15.467l-3.2 3.2h-8.8l-3.2-3.2zM67.837 19.147v6.187H64.21v-5.36l-1.6-1.787h-5.813v7.147H53.17V6.667h11.707l2.853 2.88V15.2l-1.813 1.84 1.92 2.107zM56.797 15.2h6.427l.933-.933V10.64l-.933-.933h-6.427V15.2zM77.098 6.667h13.493v3.067h-9.867v4.72h9.093v3.013h-9.093v4.8h9.867v3.067H77.098V6.667zM92.603 6.667h3.253l8.32 12.667h.053V6.667h3.493v18.667h-3.253l-8.32-12.64h-.053v12.64h-3.493V6.667zM110.53 6.667h13.493v3.067h-9.867v4.72h9.093v3.013h-9.093v4.8h9.867v3.067H110.53V6.667zM140.703 19.147v6.187h-3.627v-5.36l-1.6-1.787h-5.814v7.147h-3.627V6.667h11.707l2.853 2.88V15.2l-1.813 1.84 1.92 2.107zM129.662 15.2h6.427l.933-.933V10.64l-.933-.933h-6.427V15.2zM143.097 22.267V9.734l3.067-3.067h9.28l3.013 3.013v2.853h-3.627v-1.52l-1.253-1.253h-5.493l-1.36 1.36v9.76l1.36 1.36h5.547l1.307-1.307v-2.907h-4v-3.093h7.52v7.333l-3.067 3.067h-9.227l-3.067-3.067zM165.104 17.707l-6.64-11.04h3.973l4.453 7.653h.053l4.453-7.653h3.973l-6.64 11.04v7.627h-3.627v-7.627z" />
    </symbol>
    <symbol id="icon-arrow-up" viewBox="0 0 32 32">
      <path
        d="M16.413 7.652v17.019h-1.811V7.652l-8.509 8.509-1.28-1.28L15.508 4.186l10.695 10.695-1.28 1.28-8.509-8.509z" />
    </symbol>
    <symbol id="icon-cross" viewBox="0 0 32 32">
      <path stroke-linecap="round" stroke-linejoin="round" stroke-width="2.667"
        d="M22.667 9.333 9.334 22.666M9.333 9.333l13.333 13.333" />
    </symbol>
    <symbol id="icon-search" viewBox="0 0 32 32">
      <path stroke-linecap="round" stroke-linejoin="round" stroke-width="2.667"
        d="M14.667 25.333c5.891 0 10.667-4.776 10.667-10.667S20.558 3.999 14.667 3.999 4 8.775 4 14.666s4.776 10.667 10.667 10.667zM28 28l-5.8-5.8" />
    </symbol>
    <symbol id="icon-trash" viewBox="0 0 32 32">
      <path
        d="M14.934 1.367c-1.493 0-2.423-0.065-3.402 0.434-0.746 0.38-1.35 0.984-1.73 1.73-0.465 0.912-0.408 1.847-0.402 3.168h-5.398c-0 0-0.001 0-0.001 0-0.718 0-1.3 0.582-1.3 1.3 0 0 0 0.001 0 0.001v-0c0 0 0 0 0 0.001 0 0.718 0.582 1.3 1.3 1.3 0 0 0.001 0 0.001 0h1.367v13.633c0 2.24-0.066 3.54 0.578 4.805 0.508 0.997 1.319 1.808 2.316 2.316 1.265 0.644 2.564 0.578 4.805 0.578h5.867c2.24 0 3.54 0.066 4.805-0.578 0.997-0.508 1.808-1.32 2.316-2.316 0.644-1.265 0.578-2.564 0.578-4.805v-13.633h1.367c0 0 0 0 0.001 0 0.718 0 1.3-0.582 1.3-1.3 0-0 0-0.001 0-0.001v0c0-0 0-0 0-0.001 0-0.718-0.582-1.3-1.3-1.3-0 0-0.001 0-0.001 0h-5.398c0.006-1.321 0.063-2.256-0.402-3.168-0.38-0.746-0.984-1.35-1.73-1.73-0.979-0.499-1.909-0.434-3.402-0.434zM14.934 3.965h2.133c1.493 0 2.057 0.070 2.219 0.152 0.257 0.131 0.467 0.337 0.598 0.594 0 0.001 0 0.001 0 0.002s0 0.001 0 0.002v-0c0.074 0.144 0.125 0.819 0.137 1.984h-8.039c0.012-1.166 0.063-1.84 0.137-1.984 0.131-0.257 0.336-0.467 0.594-0.598 0.001 0 0.001 0 0.002 0s0.001 0 0.002 0h-0c0.162-0.082 0.725-0.152 2.219-0.152zM7.965 9.301h16.070v13.633c0 2.24-0.069 3.178-0.297 3.625-0.259 0.508-0.672 0.921-1.18 1.18-0.447 0.228-1.385 0.297-3.625 0.297h-5.867c-2.24 0-3.178-0.069-3.625-0.297-0.508-0.259-0.921-0.672-1.18-1.18-0.228-0.447-0.297-1.385-0.297-3.625zM13.332 14.035c-0.716 0.002-1.295 0.581-1.297 1.297v6.668c0 0 0 0 0 0.001 0 0.717 0.58 1.298 1.297 1.3h0c0 0 0.001 0 0.001 0 0.718 0 1.3-0.582 1.3-1.3 0-0 0-0.001 0-0.001v0-6.668c-0.002-0.717-0.583-1.297-1.3-1.297-0 0-0.001 0-0.001 0h0zM18.668 14.035c-0 0-0 0-0.001 0-0.717 0-1.298 0.58-1.3 1.297v6.668c0 0 0 0 0 0.001 0 0.718 0.582 1.3 1.3 1.3 0 0 0.001 0 0.001 0h-0c0.717-0.002 1.297-0.583 1.297-1.3 0-0 0-0.001 0-0.001v0-6.668c-0.002-0.716-0.581-1.295-1.297-1.297h-0z">
      </path>
    </symbol>
    <symbol id="icon-heart" viewBox="0 0 32 32">
      <path stroke-linecap="round" stroke-linejoin="round" stroke-width="2.4"
        d="M27.787 6.147a7.345 7.345 0 0 0-5.187-2.15 7.33 7.33 0 0 0-5.187 2.15L16 7.56l-1.413-1.413a7.333 7.333 0 0 0-10.374 0 7.333 7.333 0 0 0 0 10.374L16 28.308l11.787-11.787a7.345 7.345 0 0 0 2.15-5.187 7.33 7.33 0 0 0-2.15-5.187z" />
    </symbol>
    <symbol id="icon-running-stick" viewBox="0 0 32 32">
      <path
        d="M29.647 9.451a1.185 1.185 0 0 0-1.667-.149l-3.282 2.757-1.509-3.739a1.163 1.163 0 0 0-.229-.362 3.215 3.215 0 0 0-1.582-1.617 3.24 3.24 0 0 0-.982-.262c-.073-.038-.139-.088-.222-.114l-5.775-1.61a1.19 1.19 0 0 0-.917.125 1.155 1.155 0 0 0-.719.672l-2.175 5.592a1.188 1.188 0 0 0 .676 1.534 1.187 1.187 0 0 0 1.532-.678l1.837-4.722 2.63.731c-.064.104-.133.201-.185.312l-3.372 7.309c-.049.107-.075.217-.109.328l-4.098 6.871-6.859 2.294a1.751 1.751 0 0 0 2.081 2.819l7.018-2.417c.215-.156.371-.36.489-.58.088-.094.189-.168.256-.284l2.443-4.096 4.337 3.696-4.641 5.23a1.75 1.75 0 1 0 2.622 2.32l5.791-6.524a1.72 1.72 0 0 0 .36-.676c.043-.132.043-.269.054-.406 0-.069.026-.132.021-.196a1.72 1.72 0 0 0-.601-1.274l-3.991-3.403c.288-.274.532-.6.709-.983l2.585-5.599.828 2.206c.035.196.1.388.239.549.125.149.284.248.454.317.017.009.038.01.059.016.107.038.216.075.329.08.133.012.269-.005.405-.043l.005-.002c.036-.009.073-.002.109-.017a1.17 1.17 0 0 0 .466-.34l4.71-3.998c.501-.421.289-1.166-.132-1.667zM23.69 6.602a3.301 3.301 0 1 0 0-6.602 3.301 3.301 0 0 0 0 6.602z" />
    </symbol>
    <symbol id="icon-quotes" viewBox="0 0 32 32">
      <path
        d="M8.201 17.469c1.546-.613 2.785-.452 3.719.481s1.21 2.421.831 4.463c-.292 1.517-.933 2.683-1.925 3.5-.963.787-2.085 1.181-3.369 1.181-1.75 0-2.96-.671-3.631-2.013-.671-1.371-.802-3.208-.394-5.512.233-1.254.613-2.523 1.137-3.806s1.225-2.596 2.1-3.938 2.013-2.508 3.413-3.5 2.946-1.633 4.637-1.925l-.437 4.638c-1.429.292-2.698 1.035-3.806 2.231-1.108 1.167-1.867 2.567-2.275 4.2zm13.169 0c1.546-.613 2.785-.452 3.719.481s1.21 2.421.831 4.463c-.292 1.517-.933 2.683-1.925 3.5-.963.787-2.085 1.181-3.369 1.181-1.75 0-2.96-.671-3.631-2.013-.671-1.371-.802-3.208-.394-5.512.233-1.254.613-2.523 1.137-3.806s1.225-2.596 2.1-3.938 2.013-2.508 3.413-3.5 2.946-1.633 4.637-1.925l-.437 4.638c-1.429.292-2.698 1.035-3.806 2.231-1.108 1.167-1.867 2.567-2.275 4.2z" />
    </symbol>
    <symbol id="icon-star" viewBox="0 0 32 32">
      <path
        d="M13.826 3.262c.684-2.106 3.663-2.106 4.348 0l1.932 5.945a2.285 2.285 0 0 0 2.174 1.579h6.251c2.214 0 3.135 2.833 1.344 4.135l-5.057 3.674a2.286 2.286 0 0 0-.83 2.556l1.931 5.945c.684 2.106-1.726 3.857-3.517 2.555l-5.057-3.674a2.286 2.286 0 0 0-2.687 0l-5.057 3.674c-1.791 1.302-4.202-.45-3.517-2.555l1.932-5.945a2.287 2.287 0 0 0-.83-2.556l-5.057-3.674c-1.791-1.302-.871-4.135 1.344-4.135h6.251c.99 0 1.868-.638 2.174-1.579l1.932-5.945z" />
    </symbol>
    <symbol id="icon-dumbbell" viewBox="0 0 32 32">
      <path
        d="M7.36 9.143H5.44c-.532 0-.96.459-.96 1.029v4.457h-.96c-.176 0-.32.154-.32.343v2.057c0 .188.144.343.32.343h.96v4.457c0 .57.428 1.028.96 1.028h1.92c.532 0 .96-.459.96-1.028V10.172c0-.57-.428-1.029-.96-1.029zm21.12 5.486h-.96v-4.457c0-.57-.428-1.029-.96-1.029h-1.92c-.532 0-.96.459-.96 1.029v11.657c0 .57.428 1.028.96 1.028h1.92c.532 0 .96-.459.96-1.028v-4.457h.96c.176 0 .32-.154.32-.343v-2.057c0-.189-.144-.343-.32-.343zM21.44 6.4h-1.92c-.532 0-.96.459-.96 1.029v7.2h-5.12v-7.2c0-.57-.428-1.029-.96-1.029h-1.92c-.532 0-.96.459-.96 1.029v17.143c0 .57.428 1.029.96 1.029h1.92c.532 0 .96-.459.96-1.029v-7.2h5.12v7.2c0 .57.428 1.029.96 1.029h1.92c.532 0 .96-.459.96-1.029V7.429c0-.57-.428-1.029-.96-1.029z" />
    </symbol>
    <symbol id="icon-youtube" viewBox="0 0 32 32">
      <path
        d="M24.24 6c-1.36-.08-4.16-.16-8.4-.16h-.56c-4.08 0-6.8.08-8.16.24-1.84.16-3.12.64-3.84 1.28-.64.56-1.12 1.6-1.28 2.96-.08.88-.16 2.72-.16 5.52v.4c0 2.64.08 4.48.24 5.36.24 1.28.64 2.24 1.44 2.8.8.64 2.16 1.04 4.08 1.2 1.36.08 4.16.16 8.4.16h.56c4.08 0 6.8-.08 8.16-.24 1.84-.16 3.12-.64 3.84-1.28.64-.56 1.12-1.6 1.28-2.96.08-.88.16-2.72.16-5.52v-.4c0-2.64-.08-4.48-.24-5.36-.24-1.28-.64-2.24-1.44-2.8-.8-.64-2.16-1.04-4.08-1.2zm-3.12 9.84-8.8 5.28V10.56l8.8 5.28z" />
    </symbol>
    <symbol id="icon-instagram" viewBox="0 0 32 32">
      <path
        d="M28.717 10.756a9.264 9.264 0 0 0-.596-3.145 6.547 6.547 0 0 0-3.743-3.737 9.42 9.42 0 0 0-3.108-.596c-1.368-.061-1.801-.078-5.273-.078s-3.917 0-5.274.078a9.418 9.418 0 0 0-3.106.596 6.541 6.541 0 0 0-3.743 3.737 9.288 9.288 0 0 0-.596 3.101c-.061 1.367-.08 1.8-.08 5.265s0 3.909.08 5.265a9.335 9.335 0 0 0 .596 3.104 6.548 6.548 0 0 0 3.744 3.735 9.37 9.37 0 0 0 3.106.639c1.369.061 1.803.08 5.274.08s3.916 0 5.274-.08a9.357 9.357 0 0 0 3.108-.595 6.555 6.555 0 0 0 3.743-3.737 9.35 9.35 0 0 0 .596-3.104c.061-1.365.08-1.798.08-5.265-.003-3.466-.003-3.906-.082-5.264zM15.99 22.531c-3.631 0-6.572-2.936-6.572-6.561s2.941-6.561 6.572-6.561c3.628 0 6.572 2.936 6.572 6.561s-2.944 6.561-6.572 6.561zm6.833-11.835a1.53 1.53 0 1 1 0-3.06 1.53 1.53 0 1 1 0 3.06z" />
      <path d="M15.992 19.976a4.004 4.004 0 1 0 0-8.009 4.004 4.004 0 0 0 0 8.009z" />
    </symbol>
    <symbol id="icon-facebook" viewBox="0 0 32 32">
      <path
        d="M19.52 4.64h.96v3.6h-1.2c-.48 0-.96 0-1.2.24s-.24.48-.24 1.04v1.28h2.64v3.04h-2.64v13.2h-4.08V13.76H11.6v-3.04h2.16V9.68c0-1.76.24-3.04.72-3.6.72-1.04 2.16-1.52 4.32-1.52.24.08.48.08.72.08z" />
    </symbol>
    <symbol id="icon-github" viewBox="0 0 32 32">
      <path
        d="M16 .395c-8.836 0-16 7.163-16 16 0 7.069 4.585 13.067 10.942 15.182.8.148 1.094-.347 1.094-.77 0-.381-.015-1.642-.022-2.979-4.452.968-5.391-1.888-5.391-1.888-.728-1.849-1.776-2.341-1.776-2.341-1.452-.993.11-.973.11-.973 1.606.113 2.452 1.649 2.452 1.649 1.427 2.446 3.743 1.739 4.656 1.33.143-1.034.558-1.74 1.016-2.14-3.554-.404-7.29-1.777-7.29-7.907 0-1.747.625-3.174 1.649-4.295-.166-.403-.714-2.03.155-4.234 0 0 1.344-.43 4.401 1.64a15.353 15.353 0 0 1 4.005-.539c1.359.006 2.729.184 4.008.539 3.054-2.07 4.395-1.64 4.395-1.64.871 2.204.323 3.831.157 4.234 1.026 1.12 1.647 2.548 1.647 4.295 0 6.145-3.743 7.498-7.306 7.895.574.497 1.085 1.47 1.085 2.963 0 2.141-.019 3.864-.019 4.391 0 .426.288.925 1.099.768C27.421 29.457 32 23.462 32 16.395c0-8.837-7.164-16-16-16z" />
    </symbol>
    <symbol id="icon-linkedin" viewBox="0 0 32 32">
      <path
        d="M12 12h5.535v2.837h.079c.77-1.381 2.655-2.837 5.464-2.837C28.92 12 30 15.637 30 20.367V30h-5.769v-8.54c0-2.037-.042-4.657-3.001-4.657-3.005 0-3.463 2.218-3.463 4.509V30H12V12zM2 12h6v18H2V12zM8 7a3 3 0 1 1-6 0 3 3 0 0 1 6 0z" />
    </symbol>
    <symbol id="icon-more" viewBox="0 0 32 32">
      <path
        d="M16.859 23.425l12.601-13.226c0.203-0.213 0.328-0.501 0.328-0.819s-0.125-0.606-0.328-0.82l0.001 0.001-0.014-0.014c-0.199-0.209-0.48-0.339-0.791-0.339s-0.592 0.13-0.79 0.339l-0 0.001-11.866 12.454-11.86-12.454c-0.199-0.209-0.48-0.34-0.792-0.34s-0.592 0.13-0.791 0.339l-0.001 0.001-0.014 0.014c-0.203 0.213-0.328 0.501-0.328 0.819s0.125 0.606 0.328 0.82l-0.001-0.001 12.601 13.226c0.216 0.227 0.521 0.368 0.859 0.368s0.642-0.141 0.859-0.367l0-0.001z">
      </path>
    </symbol>
    <symbol id="icon-search" viewBox="0 0 32 32">
      <path
        d="M8.25 14.25C11.5637 14.25 14.25 11.5637 14.25 8.25C14.25 4.93629 11.5637 2.25 8.25 2.25C4.93629 2.25 2.25 4.93629 2.25 8.25C2.25 11.5637 4.93629 14.25 8.25 14.25Z"
        stroke-width="1.5" stroke-linecap="round" stroke-linejoin="round" />
      <path d="M15.7498 15.75L12.4873 12.4875" stroke-width="1.5" stroke-linecap="round" stroke-linejoin="round" />
    </symbol>
      <symbol id="email" viewBox="0 0 18 18">
    <path d="M16.313 2.25h-14.625c-0.928 0-1.688 0.759-1.688 1.688v11.25c0 0.928 0.759 1.688 1.688 1.688h14.625c0.928 0 1.688-0.759 1.688-1.688v-11.25c0-0.928-0.759-1.688-1.688-1.688zM7.009 9.675l-4.759 3.707v-8.818l4.759 5.111zM3.1 4.5h11.799l-5.9 4.43-5.9-4.43zM7.195 9.874l1.805 1.939 1.805-1.939 3.701 4.751h-11.013l3.701-4.751zM10.991 9.675l4.759-5.111v8.818l-4.759-3.707z"></path>
    </symbol>
    <symbol id="icon-switcher-sun" viewBox="0 0 32 32">
<path d="M16 22.667c-3.68 0-6.667-2.987-6.667-6.667s2.987-6.667 6.667-6.667 6.667 2.987 6.667 6.667-2.987 6.667-6.667 6.667zM16 10.667c-2.947 0-5.333 2.387-5.333 5.333s2.387 5.333 5.333 5.333 5.333-2.387 5.333-5.333-2.387-5.333-5.333-5.333zM16.667 6v-5.333c0-0.373-0.293-0.667-0.667-0.667s-0.667 0.293-0.667 0.667v5.333c0 0.373 0.293 0.667 0.667 0.667s0.667-0.293 0.667-0.667zM16.667 31.333v-5.333c0-0.373-0.293-0.667-0.667-0.667s-0.667 0.293-0.667 0.667v5.333c0 0.373 0.293 0.667 0.667 0.667s0.667-0.293 0.667-0.667zM6.667 16c0-0.373-0.293-0.667-0.667-0.667h-5.333c-0.373 0-0.667 0.293-0.667 0.667s0.293 0.667 0.667 0.667h5.333c0.373 0 0.667-0.293 0.667-0.667zM32 16c0-0.373-0.293-0.667-0.667-0.667h-5.333c-0.373 0-0.667 0.293-0.667 0.667s0.293 0.667 0.667 0.667h5.333c0.373 0 0.667-0.293 0.667-0.667zM23.8 9.133l4-4c0.267-0.267 0.267-0.68 0-0.947s-0.68-0.267-0.947 0l-4 4c-0.267 0.267-0.267 0.68 0 0.947 0.118 0.123 0.283 0.199 0.467 0.199s0.349-0.076 0.466-0.199l0-0zM5.133 27.8l4-4c0.267-0.267 0.267-0.68 0-0.947s-0.68-0.267-0.947 0l-4 4c-0.267 0.267-0.267 0.68 0 0.947 0.118 0.123 0.283 0.199 0.467 0.199s0.349-0.076 0.466-0.199l0-0zM9.133 9.133c0.267-0.267 0.267-0.68 0-0.947l-4-3.987c-0.267-0.267-0.68-0.267-0.947 0s-0.267 0.68 0 0.947l4 4c0.118 0.123 0.283 0.199 0.467 0.199s0.349-0.076 0.466-0.199l0-0zM27.8 27.8c0.267-0.267 0.267-0.68 0-0.947l-4-4c-0.267-0.267-0.68-0.267-0.947 0s-0.267 0.68 0 0.947l4 4c0.118 0.123 0.283 0.199 0.467 0.199s0.349-0.076 0.466-0.199l0-0z"></path>
</symbol>
<symbol id="icon-moon" viewBox="0 0 32 32">
<path d="M18.667 32c-8.833-0.010-15.99-7.167-16-15.999v-0.001c-0.204-11.941 13.375-19.98 23.721-13.988l2.071 1.149-2.057 1.173c-8.933 4.917-8.28 18.493 1.067 22.541l2.161 0.975-1.956 1.341c-2.517 1.755-5.639 2.805-9.006 2.808h-0.001zM18.667 2.667c-7.36 0.008-13.325 5.973-13.333 13.333v0.001c-0.207 9.489 10.351 16.267 18.873 12.109-4.134-2.803-6.815-7.479-6.815-12.781 0-4.79 2.188-9.070 5.62-11.893l0.027-0.021c-1.294-0.474-2.787-0.748-4.345-0.748-0.009 0-0.019 0-0.028 0h0.001z"></path>
</symbol>
  </defs>
</svg>